<!-- Generated by IcoMoon.io -->
<svg version="1.1" xmlns="http://www.w3.org/2000/svg" width="32" height="32" viewBox="0 0 32 32">
<title>lang</title>
<path fill="#5685ff" d="M16 2.667c-7.36 0-13.333 5.973-13.333 13.333s5.973 13.333 13.333 13.333c7.36 0 13.333-5.973 13.333-13.333s-5.973-13.333-13.333-13.333zM5.333 16c0-0.813 0.107-1.613 0.28-2.373l6.373 6.373v1.333c0 1.467 1.2 2.667 2.667 2.667v2.573c-5.24-0.667-9.32-5.147-9.32-10.573zM23.853 23.2c-0.347-1.080-1.333-1.867-2.533-1.867h-1.333v-4c0-0.733-0.6-1.333-1.333-1.333h-8v-2.667h2.667c0.733 0 1.333-0.6 1.333-1.333v-2.667h2.667c1.467 0 2.667-1.2 2.667-2.667v-0.547c3.907 1.573 6.68 5.413 6.68 9.88 0 2.773-1.080 5.307-2.813 7.2z"></path>
</svg>
