<svg width="24" height="24" viewBox="0 0 24 24" fill="none" xmlns="http://www.w3.org/2000/svg">
<g id="public-24px (3) 1" clip-path="url(#clip0_1402_1314)">
<path id="Vector" d="M12.0001 2C6.48012 2 2.00012 6.48 2.00012 12C2.00012 17.52 6.48012 22 12.0001 22C17.5201 22 22.0001 17.52 22.0001 12C22.0001 6.48 17.5201 2 12.0001 2ZM4.00012 12C4.00012 11.39 4.08012 10.79 4.21012 10.22L8.99012 15V16C8.99012 17.1 9.89012 18 10.9901 18V19.93C7.06012 19.43 4.00012 16.07 4.00012 12ZM17.8901 17.4C17.6301 16.59 16.8901 16 15.9901 16H14.9901V13C14.9901 12.45 14.5401 12 13.9901 12H7.99012V10H9.99012C10.5401 10 10.9901 9.55 10.9901 9V7H12.9901C14.0901 7 14.9901 6.1 14.9901 5V4.59C17.9201 5.77 20.0001 8.65 20.0001 12C20.0001 14.08 19.1901 15.98 17.8901 17.4Z" fill="#5685FF"/>
</g>
<defs>
<clipPath id="clip0_1402_1314">
<rect width="24" height="24" fill="white"/>
</clipPath>
</defs>
</svg>
