<svg width="166" height="28" viewBox="0 0 166 28" fill="none" xmlns="http://www.w3.org/2000/svg">
<g id="Group 5234">
<g id="RatingBet">
<path d="M35.9258 22.0343L39.2617 1.94055H47.935C49.4263 1.94055 50.6854 2.212 51.7124 2.7549C52.7393 3.2978 53.4784 4.07944 53.9297 5.09983C54.3811 6.12022 54.489 7.34337 54.2535 8.7693C54.018 10.2083 53.498 11.4217 52.6935 12.4093C51.8955 13.3905 50.8784 14.1361 49.6421 14.6463C48.4124 15.15 47.0323 15.4018 45.5017 15.4018H40.3213L41.0277 11.1633H45.1093C45.7503 11.1633 46.3128 11.0848 46.7968 10.9278C47.2809 10.7643 47.6733 10.5092 47.9742 10.1625C48.2751 9.80931 48.4713 9.3449 48.5629 8.7693C48.6545 8.1937 48.6087 7.72602 48.4255 7.36627C48.2424 6.99998 47.9382 6.7318 47.5131 6.56173C47.0879 6.38512 46.5614 6.29682 45.9334 6.29682H44.0104L41.3809 22.0343H35.9258ZM49.2301 12.8116L52.7229 22.0343H46.7968L43.4217 12.8116H49.2301Z" fill="#212121"/>
<path d="M57.2317 22.2698C56.2767 22.2698 55.4558 22.1128 54.769 21.7989C54.0887 21.4784 53.5916 20.9943 53.2777 20.3468C52.9702 19.6927 52.9016 18.8685 53.0716 17.8743C53.209 17.0501 53.4674 16.347 53.8467 15.7648C54.2261 15.1827 54.6971 14.7052 55.2596 14.3324C55.8221 13.9595 56.4533 13.675 57.1532 13.4788C57.8596 13.276 58.6053 13.1452 59.3902 13.0863C60.2405 13.0209 60.9306 12.9392 61.4604 12.841C61.9902 12.7429 62.3859 12.6088 62.6476 12.4388C62.9092 12.2687 63.0662 12.0398 63.1185 11.752V11.7127C63.1774 11.3203 63.0727 11.0194 62.8046 10.8101C62.5429 10.6008 62.1766 10.4961 61.7057 10.4961C61.1955 10.4961 60.754 10.6073 60.3811 10.8297C60.0148 11.0521 59.763 11.3988 59.6257 11.8697H54.6415C54.8508 10.954 55.2792 10.1102 55.9267 9.33836C56.5808 8.55999 57.4475 7.9386 58.5268 7.47419C59.6126 7.00325 60.9077 6.76777 62.4121 6.76777C63.4848 6.76777 64.4267 6.89532 65.2378 7.15042C66.0489 7.39897 66.7193 7.74891 67.2491 8.20024C67.7855 8.64502 68.1616 9.1683 68.3774 9.77006C68.5998 10.3653 68.6522 11.0128 68.5344 11.7127L66.8076 22.0343H61.7449L62.0981 19.9151H61.9804C61.5879 20.4776 61.1464 20.9322 60.6558 21.2789C60.1718 21.6255 59.642 21.8774 59.0664 22.0343C58.4973 22.1913 57.8858 22.2698 57.2317 22.2698ZM59.5864 18.8554C59.9919 18.8554 60.3909 18.7704 60.7834 18.6003C61.1759 18.4303 61.5127 18.185 61.794 17.8645C62.0752 17.544 62.2551 17.1548 62.3336 16.6969L62.5298 15.4411C62.3859 15.4999 62.2257 15.5555 62.0491 15.6079C61.879 15.6536 61.6991 15.6994 61.5094 15.7452C61.3263 15.791 61.1301 15.8335 60.9208 15.8728C60.718 15.912 60.5087 15.9513 60.2928 15.9905C59.8611 16.0559 59.4981 16.1638 59.2038 16.3143C58.9094 16.4582 58.6805 16.6381 58.517 16.8539C58.3534 17.0632 58.2521 17.2987 58.2128 17.5603C58.1539 17.9724 58.2488 18.2929 58.4973 18.5218C58.7524 18.7442 59.1155 18.8554 59.5864 18.8554Z" fill="#212121"/>
<path d="M80.0655 6.964L79.3983 10.8886H69.4692L70.1363 6.964H80.0655ZM72.6481 3.3534H78.064L75.7681 17.1875C75.7354 17.3968 75.7419 17.5734 75.7877 17.7173C75.8335 17.8547 75.9251 17.9593 76.0624 18.0313C76.2063 18.0967 76.396 18.1294 76.6315 18.1294C76.7885 18.1294 76.9814 18.1098 77.2104 18.0705C77.4393 18.0247 77.6126 17.992 77.7304 17.9724L77.8873 21.7792C77.6126 21.8577 77.2431 21.946 76.7787 22.0441C76.3208 22.1488 75.7877 22.2175 75.1794 22.2502C73.9105 22.3091 72.877 22.175 72.079 21.8479C71.2875 21.5209 70.7381 21.0107 70.4307 20.3173C70.1298 19.6175 70.0775 18.7442 70.2737 17.6977L72.6481 3.3534Z" fill="#212121"/>
<path d="M79.2112 22.0343L81.7229 6.964H87.1388L84.6271 22.0343H79.2112ZM84.6664 5.39417C83.9338 5.39417 83.3418 5.15216 82.8905 4.66813C82.4392 4.17756 82.2724 3.59541 82.3901 2.9217C82.5078 2.2349 82.8676 1.65275 83.4694 1.17526C84.0711 0.691233 84.7383 0.449219 85.4709 0.449219C86.21 0.449219 86.7987 0.691233 87.2369 1.17526C87.6752 1.65275 87.8387 2.2349 87.7275 2.9217C87.6229 3.59541 87.2696 4.17756 86.6679 4.66813C86.0727 5.15216 85.4055 5.39417 84.6664 5.39417Z" fill="#212121"/>
<path d="M93.4257 13.5573L92.0128 22.0343H86.5969L89.1087 6.964H94.2498L93.7789 9.82893H93.9359C94.4134 8.86741 95.11 8.11848 96.0257 7.58212C96.948 7.03922 97.9651 6.76777 99.0771 6.76777C100.143 6.76777 101.03 7.00979 101.736 7.49382C102.442 7.97785 102.943 8.64502 103.237 9.49534C103.531 10.3457 103.584 11.3203 103.394 12.4191L101.785 22.0343H96.3691L97.782 13.5573C97.9062 12.8116 97.8147 12.2262 97.5072 11.801C97.2064 11.3759 96.7092 11.1633 96.0159 11.1633C95.5777 11.1633 95.1754 11.2614 94.8091 11.4576C94.4493 11.6473 94.1485 11.922 93.9064 12.2818C93.671 12.635 93.5107 13.0602 93.4257 13.5573Z" fill="#212121"/>
<path d="M109.633 27.9997C108.115 27.9997 106.853 27.7838 105.846 27.3521C104.845 26.927 104.106 26.3383 103.628 25.5861C103.157 24.8404 102.961 23.9835 103.04 23.0155H108.259C108.272 23.3425 108.367 23.6042 108.544 23.8004C108.72 23.9966 108.966 24.1373 109.28 24.2223C109.594 24.3073 109.96 24.3498 110.378 24.3498C111.085 24.3498 111.696 24.1765 112.213 23.8298C112.73 23.4897 113.047 22.8781 113.165 21.9951L113.597 19.4441H113.44C113.165 19.9543 112.795 20.3893 112.331 20.749C111.867 21.1023 111.333 21.3737 110.732 21.5634C110.13 21.7465 109.489 21.8381 108.809 21.8381C107.736 21.8381 106.791 21.5896 105.973 21.0924C105.162 20.5953 104.573 19.8071 104.207 18.7279C103.847 17.6486 103.811 16.2391 104.099 14.4992C104.4 12.6808 104.93 11.2025 105.689 10.0644C106.447 8.92628 107.321 8.09231 108.308 7.5625C109.296 7.03268 110.287 6.76777 111.281 6.76777C112.027 6.76777 112.658 6.89859 113.175 7.16023C113.691 7.41532 114.104 7.75872 114.411 8.19043C114.718 8.61559 114.931 9.08327 115.049 9.59346H115.166L115.598 6.964H121.014L118.502 21.9951C118.306 23.2771 117.806 24.3629 117.001 25.2525C116.203 26.1486 115.17 26.8288 113.901 27.2933C112.638 27.7642 111.216 27.9997 109.633 27.9997ZM111.438 17.992C111.935 17.992 112.387 17.8547 112.792 17.58C113.198 17.2987 113.541 16.8997 113.822 16.383C114.104 15.8597 114.303 15.2318 114.421 14.4992C114.538 13.7535 114.545 13.1158 114.44 12.5859C114.336 12.0496 114.13 11.6408 113.822 11.3595C113.515 11.0717 113.113 10.9278 112.615 10.9278C112.118 10.9278 111.67 11.0717 111.271 11.3595C110.872 11.6408 110.535 12.0496 110.261 12.5859C109.986 13.1158 109.79 13.7535 109.672 14.4992C109.554 15.2448 109.544 15.8793 109.643 16.4026C109.741 16.9193 109.94 17.315 110.241 17.5898C110.542 17.8579 110.941 17.992 111.438 17.992Z" fill="#212121"/>
<path d="M121.178 22.0343L124.514 1.94055H133.227C134.757 1.94055 136.01 2.14659 136.985 2.55867C137.966 2.97075 138.659 3.5529 139.065 4.3051C139.477 5.05731 139.598 5.94361 139.428 6.964C139.297 7.69659 139.016 8.36703 138.584 8.97534C138.159 9.57711 137.619 10.0873 136.965 10.5059C136.317 10.918 135.595 11.2025 134.797 11.3595L134.757 11.5557C135.621 11.5819 136.373 11.7978 137.014 12.2033C137.655 12.6023 138.126 13.1583 138.427 13.8712C138.728 14.5777 138.8 15.4018 138.643 16.3437C138.46 17.4426 138.011 18.4205 137.299 19.2773C136.586 20.1342 135.66 20.8079 134.522 21.2985C133.384 21.7891 132.089 22.0343 130.637 22.0343H121.178ZM127.379 17.6781H129.93C130.833 17.6781 131.542 17.5047 132.059 17.1581C132.582 16.8114 132.893 16.3045 132.991 15.6373C133.07 15.1663 133.031 14.7673 132.874 14.4403C132.717 14.1133 132.452 13.8647 132.079 13.6946C131.706 13.5246 131.238 13.4395 130.676 13.4395H128.046L127.379 17.6781ZM128.635 10.0644H130.872C131.343 10.0644 131.775 9.98919 132.167 9.83875C132.56 9.6883 132.883 9.46918 133.138 9.18138C133.394 8.89358 133.554 8.54691 133.619 8.14137C133.717 7.51344 133.567 7.03595 133.168 6.7089C132.775 6.38186 132.246 6.21833 131.578 6.21833H129.263L128.635 10.0644Z" fill="#212121"/>
<path d="M145.789 22.3091C144.18 22.3091 142.846 22.0016 141.786 21.3868C140.726 20.7654 139.981 19.8758 139.549 18.7181C139.117 17.5538 139.039 16.1606 139.313 14.5384C139.575 12.9817 140.115 11.6212 140.932 10.4569C141.756 9.29258 142.793 8.38665 144.042 7.7391C145.298 7.09155 146.705 6.76777 148.261 6.76777C149.4 6.76777 150.397 6.94438 151.254 7.29759C152.117 7.6508 152.82 8.16426 153.363 8.83798C153.906 9.5117 154.273 10.326 154.462 11.281C154.658 12.2295 154.658 13.3022 154.462 14.4992L154.266 15.755H140.805L141.276 12.7724H149.753C149.818 12.3407 149.776 11.9613 149.625 11.6342C149.481 11.3006 149.249 11.0423 148.929 10.8591C148.615 10.6694 148.235 10.5746 147.79 10.5746C147.346 10.5746 146.927 10.6694 146.535 10.8591C146.149 11.0488 145.818 11.3137 145.544 11.6539C145.275 11.994 145.096 12.393 145.004 12.8509L144.415 15.9905C144.337 16.4745 144.366 16.9062 144.504 17.2856C144.641 17.665 144.88 17.9626 145.22 18.1784C145.56 18.3943 145.998 18.5022 146.535 18.5022C146.901 18.5022 147.248 18.4532 147.575 18.3551C147.908 18.2504 148.203 18.1 148.458 17.9037C148.719 17.701 148.929 17.4557 149.086 17.1679H154.031C153.677 18.2144 153.118 19.1236 152.353 19.8954C151.594 20.6607 150.659 21.256 149.547 21.6811C148.441 22.0997 147.189 22.3091 145.789 22.3091Z" fill="#212121"/>
<path d="M165.534 6.964L164.867 10.8886H154.938L155.605 6.964H165.534ZM158.116 3.3534H163.532L161.237 17.1875C161.204 17.3968 161.21 17.5734 161.256 17.7173C161.302 17.8547 161.394 17.9593 161.531 18.0313C161.675 18.0967 161.864 18.1294 162.1 18.1294C162.257 18.1294 162.45 18.1098 162.679 18.0705C162.908 18.0247 163.081 17.992 163.199 17.9724L163.356 21.7792C163.081 21.8577 162.712 21.946 162.247 22.0441C161.789 22.1488 161.256 22.2175 160.648 22.2502C159.379 22.3091 158.345 22.175 157.547 21.8479C156.756 21.5209 156.207 21.0107 155.899 20.3173C155.598 19.6175 155.546 18.7442 155.742 17.6977L158.116 3.3534Z" fill="#212121"/>
</g>
<g id="Group 5231">
<g id="Group 5229">
<path id="Rectangle 1871" d="M23.0078 3.04191C23.2619 1.60794 23.389 0.890954 23.9243 0.445477C24.4596 0 25.1941 0 26.6632 0H28.7407C30.2097 0 30.9442 0 31.3216 0.445477C31.6991 0.890954 31.572 1.60794 31.3179 3.04191L28.3533 19.7724C28.0992 21.2064 27.9721 21.9234 27.4368 22.3688C26.9015 22.8143 26.167 22.8143 24.698 22.8143H22.6205C21.1514 22.8143 20.4169 22.8143 20.0395 22.3688C19.6621 21.9234 19.7891 21.2064 20.0432 19.7724L23.0078 3.04191Z" fill="#FD6230"/>
<path id="Rectangle 1872" d="M12.8282 8.10148C13.0823 6.66751 13.2093 5.95052 13.7446 5.50505C14.2799 5.05957 15.0144 5.05957 16.4835 5.05957H18.561C20.03 5.05957 20.7645 5.05957 21.142 5.50505C21.5194 5.95052 21.3923 6.66751 21.1382 8.10148L19.072 19.7621C18.8179 21.1961 18.6908 21.9131 18.1555 22.3586C17.6202 22.804 16.8857 22.804 15.4167 22.804H13.3391C11.8701 22.804 11.1356 22.804 10.7582 22.3586C10.3807 21.9131 10.5078 21.1961 10.7619 19.7621L12.8282 8.10148Z" fill="#5685FF"/>
<path id="Rectangle 1873" d="M2.64847 13.161C2.90257 11.7271 3.02962 11.0101 3.56493 10.5646C4.10024 10.1191 4.83475 10.1191 6.30378 10.1191H8.3813C9.85032 10.1191 10.5848 10.1191 10.9623 10.5646C11.3397 11.0101 11.2126 11.7271 10.9585 13.161L9.79065 19.7518C9.53655 21.1858 9.4095 21.9028 8.8742 22.3483C8.33889 22.7938 7.60438 22.7938 6.13535 22.7938H4.05783C2.58881 22.7938 1.85429 22.7938 1.47686 22.3483C1.09943 21.9028 1.22648 21.1858 1.48058 19.7518L2.64847 13.161Z" fill="#5685FF"/>
<path id="Rectangle 1874" d="M2.64847 13.161C2.90257 11.7271 3.02962 11.0101 3.56493 10.5646C4.10024 10.1191 4.83475 10.1191 6.30378 10.1191H8.3813C9.85032 10.1191 10.5848 10.1191 10.9623 10.5646C11.3397 11.0101 11.2126 11.7271 10.9585 13.161L9.79065 19.7518C9.53655 21.1858 9.4095 21.9028 8.8742 22.3483C8.33889 22.7938 7.60438 22.7938 6.13535 22.7938H4.05783C2.58881 22.7938 1.85429 22.7938 1.47686 22.3483C1.09943 21.9028 1.22648 21.1858 1.48058 19.7518L2.64847 13.161Z" fill="#5685FF"/>
</g>
<mask id="mask0_1402_1298" style="mask-type:alpha" maskUnits="userSpaceOnUse" x="1" y="0" width="31" height="23">
<g id="Group 5230">
<path id="Rectangle 1871_2" d="M23.0078 3.04191C23.2619 1.60794 23.389 0.890954 23.9243 0.445477C24.4596 0 25.1941 0 26.6632 0H28.7407C30.2097 0 30.9442 0 31.3216 0.445477C31.6991 0.890954 31.572 1.60794 31.3179 3.04191L28.3533 19.7724C28.0992 21.2064 27.9721 21.9234 27.4368 22.3688C26.9015 22.8143 26.167 22.8143 24.698 22.8143H22.6205C21.1514 22.8143 20.4169 22.8143 20.0395 22.3688C19.6621 21.9234 19.7891 21.2064 20.0432 19.7724L23.0078 3.04191Z" fill="#FD6230"/>
<path id="Rectangle 1872_2" d="M12.8282 8.10148C13.0823 6.66751 13.2093 5.95052 13.7446 5.50505C14.2799 5.05957 15.0144 5.05957 16.4835 5.05957H18.561C20.03 5.05957 20.7645 5.05957 21.142 5.50505C21.5194 5.95052 21.3923 6.66751 21.1382 8.10148L19.072 19.7621C18.8179 21.1961 18.6908 21.9131 18.1555 22.3586C17.6202 22.804 16.8857 22.804 15.4167 22.804H13.3391C11.8701 22.804 11.1356 22.804 10.7582 22.3586C10.3807 21.9131 10.5078 21.1961 10.7619 19.7621L12.8282 8.10148Z" fill="#5685FF"/>
<path id="Rectangle 1873_2" d="M2.64847 13.161C2.90257 11.7271 3.02962 11.0101 3.56493 10.5646C4.10024 10.1191 4.83475 10.1191 6.30378 10.1191H8.3813C9.85032 10.1191 10.5848 10.1191 10.9623 10.5646C11.3397 11.0101 11.2126 11.7271 10.9585 13.161L9.79065 19.7518C9.53655 21.1858 9.4095 21.9028 8.8742 22.3483C8.33889 22.7938 7.60438 22.7938 6.13535 22.7938H4.05783C2.58881 22.7938 1.85429 22.7938 1.47686 22.3483C1.09943 21.9028 1.22648 21.1858 1.48058 19.7518L2.64847 13.161Z" fill="#5685FF"/>
<path id="Rectangle 1874_2" d="M2.64847 13.161C2.90257 11.7271 3.02962 11.0101 3.56493 10.5646C4.10024 10.1191 4.83475 10.1191 6.30378 10.1191H8.3813C9.85032 10.1191 10.5848 10.1191 10.9623 10.5646C11.3397 11.0101 11.2126 11.7271 10.9585 13.161L9.79065 19.7518C9.53655 21.1858 9.4095 21.9028 8.8742 22.3483C8.33889 22.7938 7.60438 22.7938 6.13535 22.7938H4.05783C2.58881 22.7938 1.85429 22.7938 1.47686 22.3483C1.09943 21.9028 1.22648 21.1858 1.48058 19.7518L2.64847 13.161Z" fill="#5685FF"/>
</g>
</mask>
<g mask="url(#mask0_1402_1298)">
<path id="Ellipse 112" opacity="0.2" d="M31.8903 -2.51186C31.8903 10.0989 21.6673 20.322 9.0565 20.322C-3.55428 20.322 -13.7773 10.0989 -13.7773 -2.51186C-13.7773 -15.1226 -3.55428 -25.3457 9.0565 -25.3457C21.6673 -25.3457 31.8903 -15.1226 31.8903 -2.51186Z" fill="url(#paint0_linear_1402_1298)"/>
</g>
</g>
</g>
<defs>
<linearGradient id="paint0_linear_1402_1298" x1="26.346" y1="9.37925" x2="8.32699" y2="-4.18975" gradientUnits="userSpaceOnUse">
<stop stop-color="white"/>
<stop offset="0.104167" stop-color="white" stop-opacity="0.661458"/>
<stop offset="0.3125" stop-color="white" stop-opacity="0.403797"/>
<stop offset="1" stop-color="white" stop-opacity="0"/>
</linearGradient>
</defs>
</svg>
