<svg width="20" height="21" viewBox="0 0 20 21" fill="none" xmlns="http://www.w3.org/2000/svg">
<g clip-path="url(#clip0_1402_1417)">
<path opacity="0.3" d="M9.30898 5.96973H7.64232H3.33398V15.9697H16.6673V5.96973H9.30898ZM6.52565 13.4697L4.16732 11.1114L5.34232 9.93639L6.51732 11.1114L9.46732 8.16139L10.6423 9.33639L6.52565 13.4697ZM15.834 12.2947L14.659 13.4697L13.334 12.1447L12.009 13.4697L10.834 12.2947L12.159 10.9697L10.834 9.64473L12.009 8.46973L13.334 9.79473L14.659 8.46973L15.834 9.64473L14.509 10.9697L15.834 12.2947Z" fill="#5685FF"/>
<path d="M6.52435 13.4694L4.16602 11.1111L5.34102 9.93607L6.51602 11.1111L9.46602 8.16107L10.641 9.33607L6.52435 13.4694ZM14.5077 10.9694L15.8327 12.2944L14.6577 13.4694L13.3327 12.1444L12.0077 13.4694L10.8327 12.2944L12.1577 10.9694L10.8327 9.6444L12.0077 8.4694L13.3327 9.7944L14.6577 8.4694L15.8327 9.6444L14.5077 10.9694ZM16.666 4.30273H9.99935H8.33268H3.33268C2.41602 4.30273 1.67435 5.05273 1.67435 5.9694L1.66602 15.9694C1.66602 16.8861 2.41602 17.6361 3.33268 17.6361H16.666C17.5827 17.6361 18.3327 16.8861 18.3327 15.9694V5.9694C18.3327 5.05273 17.5827 4.30273 16.666 4.30273ZM16.666 15.9694H3.33268V5.9694H7.64102H9.30768H16.666V15.9694Z" fill="#255CED"/>
</g>
<defs>
<clipPath id="clip0_1402_1417">
<rect width="20" height="20" fill="white" transform="translate(0 0.969727)"/>
</clipPath>
</defs>
</svg>
