<svg width="33" height="23" viewBox="0 0 33 23" fill="none" xmlns="http://www.w3.org/2000/svg">
<path d="M23.0078 3.04191C23.2619 1.60794 23.389 0.890954 23.9243 0.445477C24.4596 0 25.1941 0 26.6632 0H28.7407C30.2097 0 30.9442 0 31.3216 0.445477C31.6991 0.890954 31.572 1.60794 31.3179 3.04191L28.3533 19.7724C28.0992 21.2064 27.9721 21.9234 27.4368 22.3688C26.9015 22.8143 26.167 22.8143 24.698 22.8143H22.6205C21.1514 22.8143 20.4169 22.8143 20.0395 22.3688C19.6621 21.9234 19.7891 21.2064 20.0432 19.7724L23.0078 3.04191Z" fill="#FD6230"/>
<path d="M12.8282 8.10148C13.0823 6.66751 13.2093 5.95052 13.7446 5.50505C14.2799 5.05957 15.0144 5.05957 16.4835 5.05957H18.561C20.03 5.05957 20.7645 5.05957 21.142 5.50505C21.5194 5.95052 21.3923 6.66751 21.1382 8.10148L19.072 19.7621C18.8179 21.1961 18.6908 21.9131 18.1555 22.3586C17.6202 22.804 16.8857 22.804 15.4167 22.804H13.3391C11.8701 22.804 11.1356 22.804 10.7582 22.3586C10.3807 21.9131 10.5078 21.1961 10.7619 19.7621L12.8282 8.10148Z" fill="#5685FF"/>
<path d="M2.64847 13.161C2.90257 11.7271 3.02962 11.0101 3.56493 10.5646C4.10024 10.1191 4.83475 10.1191 6.30378 10.1191H8.3813C9.85032 10.1191 10.5848 10.1191 10.9623 10.5646C11.3397 11.0101 11.2126 11.7271 10.9585 13.161L9.79065 19.7518C9.53655 21.1858 9.4095 21.9028 8.8742 22.3483C8.33889 22.7938 7.60438 22.7938 6.13535 22.7938H4.05783C2.58881 22.7938 1.85429 22.7938 1.47686 22.3483C1.09943 21.9028 1.22648 21.1858 1.48058 19.7518L2.64847 13.161Z" fill="#5685FF"/>
<path d="M2.64847 13.161C2.90257 11.7271 3.02962 11.0101 3.56493 10.5646C4.10024 10.1191 4.83475 10.1191 6.30378 10.1191H8.3813C9.85032 10.1191 10.5848 10.1191 10.9623 10.5646C11.3397 11.0101 11.2126 11.7271 10.9585 13.161L9.79065 19.7518C9.53655 21.1858 9.4095 21.9028 8.8742 22.3483C8.33889 22.7938 7.60438 22.7938 6.13535 22.7938H4.05783C2.58881 22.7938 1.85429 22.7938 1.47686 22.3483C1.09943 21.9028 1.22648 21.1858 1.48058 19.7518L2.64847 13.161Z" fill="#5685FF"/>
</svg>
