<svg width="40" height="40" viewBox="0 0 40 40" fill="none" xmlns="http://www.w3.org/2000/svg">
<path d="M28.0574 9.70952C28.3673 7.96084 28.5222 7.08649 29.175 6.54325C29.8278 6 30.7235 6 32.5149 6H35.0484C36.8398 6 37.7356 6 38.1958 6.54325C38.6561 7.08649 38.5012 7.96084 38.1913 9.70952L34.576 30.1119C34.2661 31.8606 34.1112 32.7349 33.4584 33.2782C32.8056 33.8214 31.9099 33.8214 30.1184 33.8214H27.585C25.7935 33.8214 24.8978 33.8214 24.4375 33.2782C23.9773 32.7349 24.1322 31.8606 24.4421 30.1119L28.0574 9.70952Z" fill="#FD6230"/>
<path d="M15.6475 15.8794C15.9573 14.1308 16.1123 13.2564 16.7651 12.7132C17.4179 12.1699 18.3136 12.1699 20.105 12.1699H22.6385C24.4299 12.1699 25.3257 12.1699 25.7859 12.7132C26.2462 13.2564 26.0912 14.1308 25.7814 15.8794L23.2616 30.0993C22.9518 31.848 22.7968 32.7223 22.144 33.2656C21.4912 33.8088 20.5955 33.8088 18.8041 33.8088H16.2706C14.4792 33.8088 13.5834 33.8088 13.1232 33.2656C12.6629 32.7223 12.8179 31.848 13.1277 30.0993L15.6475 15.8794Z" fill="#5685FF"/>
<path d="M3.23195 22.0503C3.54182 20.3017 3.69676 19.4273 4.34955 18.8841C5.00234 18.3408 5.89806 18.3408 7.68949 18.3408H10.223C12.0144 18.3408 12.9101 18.3408 13.3704 18.8841C13.8307 19.4273 13.6757 20.3017 13.3659 22.0503L11.9416 30.0876C11.6318 31.8363 11.4768 32.7107 10.824 33.2539C10.1713 33.7972 9.27554 33.7972 7.4841 33.7972H4.95063C3.15919 33.7972 2.26347 33.7972 1.80321 33.2539C1.34294 32.7107 1.49787 31.8363 1.80774 30.0876L3.23195 22.0503Z" fill="#5685FF"/>
<path d="M3.23195 22.0503C3.54182 20.3017 3.69676 19.4273 4.34955 18.8841C5.00234 18.3408 5.89806 18.3408 7.68949 18.3408H10.223C12.0144 18.3408 12.9101 18.3408 13.3704 18.8841C13.8307 19.4273 13.6757 20.3017 13.3659 22.0503L11.9416 30.0876C11.6318 31.8363 11.4768 32.7107 10.824 33.2539C10.1713 33.7972 9.27554 33.7972 7.4841 33.7972H4.95063C3.15919 33.7972 2.26347 33.7972 1.80321 33.2539C1.34294 32.7107 1.49787 31.8363 1.80774 30.0876L3.23195 22.0503Z" fill="#5685FF"/>
<mask id="mask0_2008_15" style="mask-type:alpha" maskUnits="userSpaceOnUse" x="1" y="6" width="38" height="28">
<path d="M28.0574 9.70952C28.3673 7.96084 28.5222 7.08649 29.175 6.54325C29.8278 6 30.7235 6 32.5149 6H35.0484C36.8398 6 37.7356 6 38.1958 6.54325C38.6561 7.08649 38.5012 7.96084 38.1913 9.70952L34.576 30.1119C34.2661 31.8606 34.1112 32.7349 33.4584 33.2782C32.8056 33.8214 31.9099 33.8214 30.1184 33.8214H27.585C25.7935 33.8214 24.8978 33.8214 24.4375 33.2782C23.9773 32.7349 24.1322 31.8606 24.4421 30.1119L28.0574 9.70952Z" fill="#FD6230"/>
<path d="M15.6475 15.8794C15.9573 14.1308 16.1123 13.2564 16.7651 12.7132C17.4179 12.1699 18.3136 12.1699 20.105 12.1699H22.6385C24.4299 12.1699 25.3257 12.1699 25.7859 12.7132C26.2462 13.2564 26.0912 14.1308 25.7814 15.8794L23.2616 30.0993C22.9518 31.848 22.7968 32.7223 22.144 33.2656C21.4912 33.8088 20.5955 33.8088 18.8041 33.8088H16.2706C14.4792 33.8088 13.5834 33.8088 13.1232 33.2656C12.6629 32.7223 12.8179 31.848 13.1277 30.0993L15.6475 15.8794Z" fill="#5685FF"/>
<path d="M3.23195 22.0503C3.54182 20.3017 3.69676 19.4273 4.34955 18.8841C5.00234 18.3408 5.89806 18.3408 7.68949 18.3408H10.223C12.0144 18.3408 12.9101 18.3408 13.3704 18.8841C13.8307 19.4273 13.6757 20.3017 13.3659 22.0503L11.9416 30.0876C11.6318 31.8363 11.4768 32.7107 10.824 33.2539C10.1713 33.7972 9.27554 33.7972 7.4841 33.7972H4.95063C3.15919 33.7972 2.26347 33.7972 1.80321 33.2539C1.34294 32.7107 1.49787 31.8363 1.80774 30.0876L3.23195 22.0503Z" fill="#5685FF"/>
<path d="M3.23195 22.0503C3.54182 20.3017 3.69676 19.4273 4.34955 18.8841C5.00234 18.3408 5.89806 18.3408 7.68949 18.3408H10.223C12.0144 18.3408 12.9101 18.3408 13.3704 18.8841C13.8307 19.4273 13.6757 20.3017 13.3659 22.0503L11.9416 30.0876C11.6318 31.8363 11.4768 32.7107 10.824 33.2539C10.1713 33.7972 9.27554 33.7972 7.4841 33.7972H4.95063C3.15919 33.7972 2.26347 33.7972 1.80321 33.2539C1.34294 32.7107 1.49787 31.8363 1.80774 30.0876L3.23195 22.0503Z" fill="#5685FF"/>
</mask>
<g mask="url(#mask0_2008_15)">
<path opacity="0.2" d="M38.8893 2.93703C38.8893 18.3155 26.4226 30.7823 11.0441 30.7823C-4.33441 30.7823 -16.8011 18.3155 -16.8011 2.93703C-16.8011 -12.4415 -4.33441 -24.9082 11.0441 -24.9082C26.4226 -24.9082 38.8893 -12.4415 38.8893 2.93703Z" fill="url(#paint0_linear_2008_15)"/>
</g>
<defs>
<linearGradient id="paint0_linear_2008_15" x1="32.1282" y1="17.4379" x2="10.1545" y2="0.890893" gradientUnits="userSpaceOnUse">
<stop stop-color="white"/>
<stop offset="0.104167" stop-color="white" stop-opacity="0.661458"/>
<stop offset="0.3125" stop-color="white" stop-opacity="0.403797"/>
<stop offset="1" stop-color="white" stop-opacity="0"/>
</linearGradient>
</defs>
</svg>
