<?xml version="1.0" encoding="utf-8"?><svg viewBox="0 0 166 32" xmlns="http://www.w3.org/2000/svg" xmlns:xlink="http://www.w3.org/1999/xlink"><style>:root>svg{display:none}:root>svg:target{display:block}</style><svg viewBox="0 0 32 32" id="arrow_lg" xmlns="http://www.w3.org/2000/svg"><path d="m20 6.667-1.88 1.88 6.107 6.12H2.667v2.667h21.56l-6.12 6.12L20 25.334l9.333-9.333L20 6.668z"/></svg><svg viewBox="0 0 32 32" id="arrow_sm" xmlns="http://www.w3.org/2000/svg"><path d="m21.523 19.124.001.001 3.771-3.771L13.981 4.04 10.21 7.811l7.542 7.542-7.543 7.543 3.771 3.771 7.543-7.543z"/></svg><svg fill="none" viewBox="0 0 24 25" id="calendar" xmlns="http://www.w3.org/2000/svg"><path d="M19 4.5h-1v-2h-2v2H8v-2H6v2H5c-1.11 0-1.99.9-1.99 2L3 20.5a2 2 0 0 0 2 2h14c1.1 0 2-.9 2-2v-14c0-1.1-.9-2-2-2Zm0 16H5v-10h14v10Zm0-12H5v-2h14v2Z" fill="#255CED"/><path opacity=".3" d="M19 8.5H5v-2h14v2Z" fill="#5685FF"/><path d="M9.26 18.41c-.528-.003-.985-.125-1.369-.367a2.358 2.358 0 0 1-.89-1.049c-.208-.456-.31-1.003-.309-1.642.002-.64.106-1.183.313-1.63.208-.447.503-.787.886-1.02.384-.233.84-.35 1.37-.35.528 0 .984.118 1.369.352.384.233.68.573.889 1.02.208.447.311.99.31 1.628 0 .642-.105 1.192-.313 1.648a2.36 2.36 0 0 1-.89 1.048c-.382.24-.837.361-1.366.361Zm0-1.285c.273 0 .497-.142.67-.426.177-.286.264-.735.262-1.347 0-.4-.04-.726-.12-.98-.079-.254-.189-.441-.329-.562a.71.71 0 0 0-.483-.185c-.272 0-.495.138-.667.415-.173.276-.26.714-.265 1.312-.001.407.037.743.117 1.006.08.261.19.454.33.58a.715.715 0 0 0 .485.187Zm5.583-4.773c.339 0 .66.054.963.162.303.106.57.274.804.503.235.23.418.529.55.898.135.367.203.812.205 1.335.002.477-.057.906-.179 1.287a2.8 2.8 0 0 1-.514.969 2.226 2.226 0 0 1-.8.613 2.5 2.5 0 0 1-1.04.21c-.43 0-.808-.082-1.134-.247a2.056 2.056 0 0 1-.779-.664 1.92 1.92 0 0 1-.338-.93h1.557a.565.565 0 0 0 .25.384.842.842 0 0 0 .443.117c.334 0 .577-.144.73-.432.156-.29.234-.676.236-1.16h-.034a1.19 1.19 0 0 1-.335.458c-.15.127-.324.224-.523.293a1.93 1.93 0 0 1-.63.102c-.35 0-.658-.079-.921-.236a1.67 1.67 0 0 1-.616-.65 1.993 1.993 0 0 1-.225-.944 1.965 1.965 0 0 1 .293-1.085c.197-.31.47-.552.82-.724.351-.173.757-.259 1.217-.259Zm.011 1.194a.787.787 0 0 0-.807.818.87.87 0 0 0 .105.417c.07.123.165.22.284.293.122.072.26.108.418.108a.775.775 0 0 0 .747-.494.8.8 0 0 0 .06-.324.85.85 0 0 0-.108-.418.788.788 0 0 0-.699-.4Z" fill="#255CED"/></svg><svg viewBox="0 0 32 32" id="close" xmlns="http://www.w3.org/2000/svg"><path fill="#5685ff" d="m25.333 8.546-1.88-1.88L16 14.119 8.547 6.666l-1.88 1.88 7.453 7.453-7.453 7.453 1.88 1.88L16 17.879l7.453 7.453 1.88-1.88-7.453-7.453 7.453-7.453z"/></svg><svg fill="none" viewBox="0 0 20 21" id="forecast" xmlns="http://www.w3.org/2000/svg"><g clip-path="url(#ea)"><path opacity=".3" d="M9.309 5.97H3.334v10h13.333v-10H9.31Zm-2.783 7.5L4.167 11.11l1.175-1.175 1.175 1.175 2.95-2.95 1.175 1.175-4.116 4.134Zm9.308-1.175-1.175 1.175-1.325-1.325-1.325 1.325-1.175-1.175 1.325-1.325-1.325-1.325 1.175-1.175 1.325 1.325 1.325-1.325 1.175 1.175-1.325 1.325 1.325 1.325Z" fill="#5685FF"/><path d="M6.524 13.47 4.166 11.11l1.175-1.175 1.175 1.175 2.95-2.95 1.175 1.175-4.117 4.133Zm7.984-2.5 1.325 1.324-1.175 1.175-1.325-1.325-1.325 1.325-1.175-1.175 1.325-1.325-1.325-1.325 1.175-1.175 1.325 1.325 1.325-1.325 1.175 1.175-1.325 1.325Zm2.158-6.667H3.333c-.917 0-1.659.75-1.659 1.666l-.008 10c0 .917.75 1.667 1.667 1.667h13.333c.917 0 1.667-.75 1.667-1.667v-10c0-.916-.75-1.666-1.667-1.666Zm0 11.666H3.333v-10H16.666v10Z" fill="#255CED"/></g><defs><clipPath id="ea"><path fill="#fff" transform="translate(0 .97)" d="M0 0h20v20H0z"/></clipPath></defs></svg><svg viewBox="0 0 32 32" id="lang" xmlns="http://www.w3.org/2000/svg"><path fill="#5685ff" d="M16 2.667C8.64 2.667 2.667 8.64 2.667 16S8.64 29.333 16 29.333 29.333 23.36 29.333 16 23.36 2.667 16 2.667zM5.333 16c0-.813.107-1.613.28-2.373L11.986 20v1.333c0 1.467 1.2 2.667 2.667 2.667v2.573c-5.24-.667-9.32-5.147-9.32-10.573zm18.52 7.2c-.347-1.08-1.333-1.867-2.533-1.867h-1.333v-4c0-.733-.6-1.333-1.333-1.333h-8v-2.667h2.667c.733 0 1.333-.6 1.333-1.333V9.333h2.667c1.467 0 2.667-1.2 2.667-2.667v-.547c3.907 1.573 6.68 5.413 6.68 9.88 0 2.773-1.08 5.307-2.813 7.2z"/></svg><svg fill="none" viewBox="0 0 166 28" id="logo" xmlns="http://www.w3.org/2000/svg"><g fill="#212121"><path d="m35.926 22.034 3.336-20.093h8.673c1.491 0 2.75.271 3.777.814 1.027.543 1.766 1.324 2.218 2.345.451 1.02.559 2.243.324 3.67-.236 1.438-.756 2.652-1.56 3.64-.799.98-1.816 1.726-3.052 2.236-1.23.504-2.61.756-4.14.756h-5.18l.706-4.239h4.081c.641 0 1.204-.078 1.688-.235a2.639 2.639 0 0 0 1.177-.766c.301-.353.497-.817.589-1.393.091-.575.046-1.043-.138-1.403-.183-.366-.487-.634-.912-.804-.425-.177-.952-.265-1.58-.265H44.01l-2.63 15.737h-5.454Zm13.304-9.222 3.493 9.222h-5.926l-3.375-9.222h5.808ZM57.232 22.27c-.955 0-1.776-.157-2.463-.471-.68-.32-1.177-.805-1.491-1.452-.308-.654-.376-1.479-.206-2.473.137-.824.395-1.527.775-2.11.38-.581.85-1.059 1.413-1.432a6.649 6.649 0 0 1 1.893-.853 11.097 11.097 0 0 1 2.237-.393 20.36 20.36 0 0 0 2.07-.245c.53-.098.926-.232 1.188-.402a1.01 1.01 0 0 0 .47-.687v-.04c.06-.392-.045-.693-.313-.902-.262-.21-.628-.314-1.1-.314-.51 0-.951.111-1.324.334-.366.222-.618.569-.755 1.04h-4.984c.209-.916.637-1.76 1.285-2.532.654-.778 1.52-1.4 2.6-1.864 1.086-.47 2.38-.706 3.885-.706 1.073 0 2.015.127 2.826.382.81.249 1.481.599 2.011 1.05.537.445.913.968 1.128 1.57.223.595.275 1.243.157 1.943l-1.726 10.321h-5.063l.353-2.119h-.118a5.494 5.494 0 0 1-1.324 1.364 4.94 4.94 0 0 1-1.59.755c-.569.157-1.18.236-1.834.236Zm2.354-3.415c.406 0 .805-.085 1.197-.255.393-.17.73-.415 1.011-.736.281-.32.461-.71.54-1.167l.196-1.256a5.141 5.141 0 0 1-.48.167c-.171.046-.35.091-.54.137-.184.046-.38.089-.59.128l-.627.118c-.432.065-.795.173-1.09.323a1.872 1.872 0 0 0-.686.54c-.164.21-.265.445-.304.706-.06.412.036.733.284.962.255.222.618.333 1.09.333ZM80.066 6.964l-.668 3.925H69.47l.667-3.925h9.93Zm-7.418-3.61h5.416l-2.296 13.833c-.033.21-.026.386.02.53a.54.54 0 0 0 .274.314c.144.066.334.098.57.098.156 0 .35-.02.578-.059.23-.045.403-.078.52-.098l.157 3.807c-.274.079-.644.167-1.108.265a9.54 9.54 0 0 1-1.6.206c-1.269.06-2.302-.075-3.1-.402-.791-.327-1.34-.837-1.648-1.53-.301-.7-.353-1.574-.157-2.62l2.374-14.345ZM79.211 22.034l2.512-15.07h5.416l-2.512 15.07h-5.416Zm5.455-16.64c-.732 0-1.324-.242-1.775-.726-.452-.49-.619-1.073-.5-1.746.117-.687.477-1.27 1.078-1.747.602-.484 1.27-.726 2.002-.726.739 0 1.328.242 1.766.726.438.478.602 1.06.49 1.747-.104.673-.457 1.256-1.06 1.746-.594.484-1.261.726-2 .726ZM93.426 13.557l-1.413 8.477h-5.416l2.512-15.07h5.14l-.47 2.865h.157a5.256 5.256 0 0 1 2.09-2.247 5.905 5.905 0 0 1 3.051-.814c1.066 0 1.953.242 2.659.726.706.484 1.207 1.151 1.501 2.001.294.85.347 1.825.157 2.924l-1.609 9.615h-5.416l1.413-8.477c.124-.745.033-1.33-.275-1.756-.3-.425-.798-.638-1.491-.638-.438 0-.84.098-1.207.295-.36.19-.66.464-.903.824-.235.353-.395.778-.48 1.275ZM109.633 28c-1.518 0-2.78-.216-3.787-.648-1.001-.425-1.74-1.014-2.218-1.766-.471-.746-.667-1.602-.588-2.57h5.219c.013.327.108.588.285.784.176.197.422.337.736.422.314.085.68.128 1.098.128.707 0 1.318-.174 1.835-.52.517-.34.834-.952.952-1.835l.432-2.55h-.157c-.275.51-.645.944-1.109 1.304a5.198 5.198 0 0 1-1.599.814 6.575 6.575 0 0 1-1.923.275c-1.073 0-2.018-.248-2.836-.746-.811-.497-1.4-1.285-1.766-2.364-.36-1.08-.396-2.489-.108-4.229.301-1.818.831-3.296 1.59-4.435.758-1.138 1.632-1.972 2.619-2.502.988-.53 1.979-.794 2.973-.794.746 0 1.377.13 1.894.392.516.255.929.599 1.236 1.03.307.426.52.893.638 1.403h.117l.432-2.629h5.416l-2.512 15.031c-.196 1.282-.696 2.368-1.501 3.258-.798.896-1.831 1.576-3.1 2.04-1.263.471-2.685.707-4.268.707Zm1.805-10.008a2.36 2.36 0 0 0 1.354-.412c.406-.281.749-.68 1.03-1.197.282-.523.481-1.151.599-1.884.117-.745.124-1.383.019-1.913-.104-.536-.31-.945-.618-1.226-.307-.288-.709-.432-1.207-.432-.497 0-.945.144-1.344.431-.399.282-.736.69-1.01 1.227-.275.53-.471 1.168-.589 1.913-.118.746-.128 1.38-.029 1.904.098.516.297.912.598 1.187.301.268.7.402 1.197.402ZM121.178 22.034l3.336-20.093h8.713c1.53 0 2.783.206 3.758.618.981.412 1.674.994 2.08 1.746.412.752.533 1.639.363 2.659a4.931 4.931 0 0 1-.844 2.011 5.75 5.75 0 0 1-1.619 1.53 6.244 6.244 0 0 1-2.168.854l-.04.197c.864.026 1.616.242 2.257.647a3.532 3.532 0 0 1 1.413 1.668c.301.707.373 1.53.216 2.473a6.075 6.075 0 0 1-1.344 2.933c-.713.857-1.639 1.53-2.777 2.021-1.138.491-2.433.736-3.885.736h-9.459Zm6.201-4.356h2.551c.903 0 1.612-.173 2.129-.52.523-.347.834-.854.932-1.52.079-.472.04-.87-.117-1.198-.157-.327-.422-.575-.795-.745-.373-.17-.841-.255-1.403-.255h-2.63l-.667 4.238Zm1.256-7.614h2.237c.471 0 .903-.075 1.295-.225.393-.15.716-.37.971-.658.256-.287.416-.634.481-1.04.098-.628-.052-1.105-.451-1.432-.393-.327-.922-.49-1.59-.49h-2.315l-.628 3.845ZM145.789 22.31c-1.609 0-2.943-.308-4.003-.923a5.05 5.05 0 0 1-2.237-2.669c-.432-1.164-.51-2.557-.236-4.18.262-1.556.802-2.917 1.619-4.081a8.628 8.628 0 0 1 3.11-2.718c1.256-.647 2.663-.971 4.219-.971 1.139 0 2.136.176 2.993.53.863.353 1.566.866 2.109 1.54.543.674.91 1.488 1.099 2.443.196.948.196 2.021 0 3.218l-.196 1.256h-13.461l.471-2.983h8.477c.065-.431.023-.81-.128-1.138a1.606 1.606 0 0 0-.696-.775c-.314-.19-.694-.284-1.139-.284a2.846 2.846 0 0 0-2.246 1.079c-.269.34-.448.739-.54 1.197l-.589 3.14c-.078.483-.049.915.089 1.295.137.379.376.677.716.892.34.216.778.324 1.315.324.366 0 .713-.049 1.04-.147.333-.105.628-.255.883-.451.261-.203.471-.448.628-.736h4.945a7.012 7.012 0 0 1-1.678 2.727c-.759.766-1.694 1.361-2.806 1.786-1.106.419-2.358.628-3.758.628ZM165.534 6.964l-.667 3.925h-9.929l.667-3.925h9.929Zm-7.418-3.61h5.416l-2.295 13.833c-.033.21-.027.386.019.53a.541.541 0 0 0 .275.314c.144.066.333.098.569.098.157 0 .35-.02.579-.059.229-.045.402-.078.52-.098l.157 3.807c-.275.079-.644.167-1.109.265a9.542 9.542 0 0 1-1.599.206c-1.269.06-2.303-.075-3.101-.402-.791-.327-1.34-.837-1.648-1.53-.301-.7-.353-1.574-.157-2.62l2.374-14.345Z"/></g><path d="M23.008 3.042c.254-1.434.381-2.151.916-2.597C24.46 0 25.194 0 26.664 0h2.077c1.469 0 2.203 0 2.58.445.378.446.251 1.163-.003 2.597l-2.965 16.73c-.254 1.434-.38 2.151-.916 2.597-.536.445-1.27.445-2.739.445H22.62c-1.469 0-2.203 0-2.58-.445-.378-.446-.25-1.163.003-2.597l2.965-16.73Z" fill="#FD6230"/><path d="M12.828 8.101c.254-1.433.381-2.15.917-2.596.535-.445 1.27-.445 2.739-.445h2.077c1.469 0 2.204 0 2.581.445.377.446.25 1.163-.004 2.596l-2.066 11.661c-.254 1.434-.381 2.151-.916 2.597-.536.445-1.27.445-2.74.445H13.34c-1.469 0-2.203 0-2.58-.445-.378-.446-.251-1.163.003-2.597l2.066-11.66ZM2.648 13.161c.255-1.434.382-2.15.917-2.596.535-.446 1.27-.446 2.739-.446H8.38c1.47 0 2.204 0 2.581.446.378.445.25 1.162-.003 2.596l-1.168 6.59c-.254 1.435-.382 2.152-.917 2.597-.535.446-1.27.446-2.739.446H4.058c-1.47 0-2.204 0-2.581-.446-.378-.445-.25-1.162.004-2.596l1.167-6.591Z" fill="#5685FF"/><path d="M2.648 13.161c.255-1.434.382-2.15.917-2.596.535-.446 1.27-.446 2.739-.446H8.38c1.47 0 2.204 0 2.581.446.378.445.25 1.162-.003 2.596l-1.168 6.59c-.254 1.435-.382 2.152-.917 2.597-.535.446-1.27.446-2.739.446H4.058c-1.47 0-2.204 0-2.581-.446-.378-.445-.25-1.162.004-2.596l1.167-6.591Z" fill="#5685FF"/><mask id="ga" style="mask-type:alpha" maskUnits="userSpaceOnUse" x="1" y="0" width="31" height="23"><path d="M23.008 3.042c.254-1.434.381-2.151.916-2.597C24.46 0 25.194 0 26.664 0h2.077c1.469 0 2.203 0 2.58.445.378.446.251 1.163-.003 2.597l-2.965 16.73c-.254 1.434-.38 2.151-.916 2.597-.536.445-1.27.445-2.739.445H22.62c-1.469 0-2.203 0-2.58-.445-.378-.446-.25-1.163.003-2.597l2.965-16.73Z" fill="#FD6230"/><path d="M12.828 8.101c.254-1.433.381-2.15.917-2.596.535-.445 1.27-.445 2.739-.445h2.077c1.469 0 2.204 0 2.581.445.377.446.25 1.163-.004 2.596l-2.066 11.661c-.254 1.434-.381 2.151-.916 2.597-.536.445-1.27.445-2.74.445H13.34c-1.469 0-2.203 0-2.58-.445-.378-.446-.251-1.163.003-2.597l2.066-11.66ZM2.648 13.161c.255-1.434.382-2.15.917-2.596.535-.446 1.27-.446 2.739-.446H8.38c1.47 0 2.204 0 2.581.446.378.445.25 1.162-.003 2.596l-1.168 6.59c-.254 1.435-.382 2.152-.917 2.597-.535.446-1.27.446-2.739.446H4.058c-1.47 0-2.204 0-2.581-.446-.378-.445-.25-1.162.004-2.596l1.167-6.591Z" fill="#5685FF"/><path d="M2.648 13.161c.255-1.434.382-2.15.917-2.596.535-.446 1.27-.446 2.739-.446H8.38c1.47 0 2.204 0 2.581.446.378.445.25 1.162-.003 2.596l-1.168 6.59c-.254 1.435-.382 2.152-.917 2.597-.535.446-1.27.446-2.739.446H4.058c-1.47 0-2.204 0-2.581-.446-.378-.445-.25-1.162.004-2.596l1.167-6.591Z" fill="#5685FF"/></mask><g mask="url(#ga)"><path opacity=".2" d="M31.89-2.512c0 12.61-10.223 22.834-22.834 22.834-12.61 0-22.833-10.223-22.833-22.834 0-12.61 10.223-22.834 22.834-22.834 12.61 0 22.833 10.223 22.833 22.834Z" fill="url(#gb)"/></g><defs><linearGradient id="gb" x1="26.346" y1="9.379" x2="8.327" y2="-4.19" gradientUnits="userSpaceOnUse"><stop stop-color="#fff"/><stop offset=".104" stop-color="#fff" stop-opacity=".661"/><stop offset=".313" stop-color="#fff" stop-opacity=".404"/><stop offset="1" stop-color="#fff" stop-opacity="0"/></linearGradient></defs></svg><svg viewBox="0 0 32 32" id="menu" xmlns="http://www.w3.org/2000/svg"><path fill="#5685ff" d="M4 24h24v-2.667H4V24zm0-6.667h24v-2.667H4v2.667zM4 8v2.667h24V8H4z"/></svg><svg viewBox="0 0 26 32" id="slash" xmlns="http://www.w3.org/2000/svg"><path fill="#fd6230" d="M9.692 32c1.312 0 1.967 0 2.475-.344s.751-.953 1.239-2.171l9.6-24C24 3 24.497 1.757 23.902.878s-1.933-.879-4.61-.879h-4.184c-1.312 0-1.967 0-2.475.344s-.751.953-1.239 2.171l-9.6 24C.8 28.999.303 30.242.898 31.121S2.831 32 5.508 32h4.184z"/></svg></svg>